<svg width="484" height="484" viewBox="0 0 484 484" fill="none" xmlns="http://www.w3.org/2000/svg">
<mask id="path-1-outside-1_2_1119" maskUnits="userSpaceOnUse" x="-2.10689e-05" y="9.44869e-06" width="484" height="484" fill="black">
<rect fill="white" x="-2.10689e-05" y="9.44869e-06" width="484" height="484"/>
<path d="M242 2.00002C374.548 2.00001 482 109.452 482 242C482 374.548 374.548 482 242 482C109.452 482 2 374.548 1.99999 242C1.99998 109.452 109.452 2.00003 242 2.00002ZM242 462.8C363.944 462.8 462.8 363.944 462.8 242C462.8 120.056 363.944 21.2 242 21.2C120.056 21.2 21.2 120.056 21.2 242C21.2 363.945 120.056 462.8 242 462.8Z"/>
</mask>
<path d="M242 2.00002C374.548 2.00001 482 109.452 482 242C482 374.548 374.548 482 242 482C109.452 482 2 374.548 1.99999 242C1.99998 109.452 109.452 2.00003 242 2.00002ZM242 462.8C363.944 462.8 462.8 363.944 462.8 242C462.8 120.056 363.944 21.2 242 21.2C120.056 21.2 21.2 120.056 21.2 242C21.2 363.945 120.056 462.8 242 462.8Z" fill="#E8E9E9"/>
<path d="M242 2.00002C374.548 2.00001 482 109.452 482 242C482 374.548 374.548 482 242 482C109.452 482 2 374.548 1.99999 242C1.99998 109.452 109.452 2.00003 242 2.00002ZM242 462.8C363.944 462.8 462.8 363.944 462.8 242C462.8 120.056 363.944 21.2 242 21.2C120.056 21.2 21.2 120.056 21.2 242C21.2 363.945 120.056 462.8 242 462.8Z" stroke="white" stroke-width="4" mask="url(#path-1-outside-1_2_1119)"/>
<mask id="path-2-outside-2_2_1119" maskUnits="userSpaceOnUse" x="-2.10689e-05" y="-2.10689e-05" width="484" height="484" fill="black">
<rect fill="white" x="-2.10689e-05" y="-2.10689e-05" width="484" height="484"/>
<path d="M242 1.99999C374.548 1.99998 482 109.452 482 242C482 374.548 374.548 482 242 482C109.452 482 2 374.548 1.99999 242C1.99998 109.452 109.452 2 242 1.99999ZM242 462.8C363.944 462.8 462.8 363.944 462.8 242C462.8 120.056 363.944 21.2 242 21.2C120.056 21.2 21.2 120.056 21.2 242C21.2 363.944 120.056 462.8 242 462.8Z"/>
</mask>
<path d="M242 1.99999C374.548 1.99998 482 109.452 482 242C482 374.548 374.548 482 242 482C109.452 482 2 374.548 1.99999 242C1.99998 109.452 109.452 2 242 1.99999ZM242 462.8C363.944 462.8 462.8 363.944 462.8 242C462.8 120.056 363.944 21.2 242 21.2C120.056 21.2 21.2 120.056 21.2 242C21.2 363.944 120.056 462.8 242 462.8Z" fill="#00BDA3"/>
<path d="M242 1.99999C374.548 1.99998 482 109.452 482 242C482 374.548 374.548 482 242 482C109.452 482 2 374.548 1.99999 242C1.99998 109.452 109.452 2 242 1.99999ZM242 462.8C363.944 462.8 462.8 363.944 462.8 242C462.8 120.056 363.944 21.2 242 21.2C120.056 21.2 21.2 120.056 21.2 242C21.2 363.944 120.056 462.8 242 462.8Z" stroke="white" stroke-width="4" mask="url(#path-2-outside-2_2_1119)"/>
<path d="M79.6792 257V237.812H98.8667V195.062L78.8667 202.062V182.25L119.117 168.125V237.812H137.554V257H79.6792ZM180.63 258.563C160.943 258.563 145.38 244.812 145.38 213.25C145.38 181.625 160.943 167.937 180.63 167.937C199.943 167.937 215.193 182.187 215.193 213.25C215.193 244.812 199.943 258.563 180.63 258.563ZM166.318 213.25C166.318 232.25 172.818 239.187 180.63 239.187C188.068 239.187 194.318 232.25 194.318 213.25C194.318 194.812 188.068 187.312 180.63 187.312C172.818 187.312 166.318 194.25 166.318 213.25ZM255.582 258.563C235.894 258.563 220.332 244.812 220.332 213.25C220.332 181.625 235.894 167.937 255.582 167.937C274.894 167.937 290.144 182.187 290.144 213.25C290.144 244.812 274.894 258.563 255.582 258.563ZM241.269 213.25C241.269 232.25 247.769 239.187 255.582 239.187C263.019 239.187 269.269 232.25 269.269 213.25C269.269 194.812 263.019 187.312 255.582 187.312C247.769 187.312 241.269 194.25 241.269 213.25ZM320.72 216.125C306.658 216.125 296.158 205.875 296.158 192C296.158 178.187 306.658 167.875 320.72 167.875C334.845 167.875 345.345 178.187 345.345 192C345.345 205.875 334.845 216.125 320.72 216.125ZM311.658 192C311.658 197.437 315.47 201.562 320.72 201.562C326.033 201.562 329.845 197.437 329.845 192C329.845 186.562 326.033 182.5 320.72 182.5C315.47 182.5 311.658 186.562 311.658 192ZM313.533 257L375.783 169.5H394.783L332.595 257H313.533ZM363.47 234.5C363.47 220.875 373.97 210.375 388.033 210.375C402.158 210.375 412.658 220.625 412.658 234.5C412.658 248.375 402.158 258.625 388.033 258.625C373.97 258.625 363.47 248.375 363.47 234.5ZM378.908 234.5C378.908 239.937 382.783 244 388.033 244C393.345 244 397.158 239.937 397.158 234.5C397.158 229 393.345 224.937 388.033 224.937C382.783 224.937 378.908 229.062 378.908 234.5Z" fill="#040505"/>
<path d="M78.6456 317L72.1826 300.9H74.1491L79.8071 315.16L85.4766 300.9H87.3856L80.9341 317H78.6456ZM93.1494 317.219C90.0904 317.219 87.7099 314.826 87.7099 311.549C87.7099 308.283 90.0904 305.891 93.1494 305.891C94.9434 305.891 96.2659 306.627 97.1284 307.731V306.109H98.8419V317H97.1284V315.378C96.2659 316.494 94.9434 317.219 93.1494 317.219ZM89.4579 311.549C89.4579 313.803 91.0449 315.608 93.3564 315.608C95.6219 315.608 97.2319 313.86 97.2319 311.549C97.2319 309.249 95.6219 307.501 93.3564 307.501C91.0219 307.501 89.4579 309.306 89.4579 311.549ZM102.868 317V306.109H104.57V307.662C105.455 306.362 106.904 305.891 108.238 305.891C110.929 305.891 112.781 307.616 112.781 310.249V317H111.067V310.813C111.067 308.743 109.917 307.524 107.928 307.524C106.099 307.524 104.593 308.789 104.593 310.859V317H102.868ZM121.097 321.773C119.361 321.773 117.613 321.232 116.509 320.312L117.268 318.932C118.303 319.714 119.625 320.209 121.097 320.209C123.455 320.209 125.134 318.863 125.134 316.321V315.206C124.306 316.344 123.006 317.058 121.247 317.058C118.188 317.058 115.853 314.769 115.853 311.468C115.853 308.179 118.188 305.891 121.247 305.891C123.006 305.891 124.306 306.615 125.134 307.742V306.109H126.859V316.252C126.859 319.806 124.467 321.773 121.097 321.773ZM117.601 311.468C117.601 313.676 119.131 315.447 121.442 315.447C123.685 315.447 125.283 313.734 125.283 311.468C125.283 309.226 123.685 307.501 121.442 307.501C119.131 307.501 117.601 309.272 117.601 311.468ZM135.695 317.219C133.062 317.219 130.75 315.689 130.75 312.457V306.109H132.464V312.296C132.464 314.55 133.832 315.608 135.695 315.608C137.558 315.608 138.915 314.55 138.915 312.296V306.109H140.64V312.457C140.64 315.689 138.317 317.219 135.695 317.219ZM149.145 317.219C146.086 317.219 143.705 314.826 143.705 311.549C143.705 308.283 146.086 305.891 149.145 305.891C150.939 305.891 152.261 306.627 153.124 307.731V306.109H154.837V317H153.124V315.378C152.261 316.494 150.939 317.219 149.145 317.219ZM145.453 311.549C145.453 313.803 147.04 315.608 149.352 315.608C151.617 315.608 153.227 313.86 153.227 311.549C153.227 309.249 151.617 307.501 149.352 307.501C147.017 307.501 145.453 309.306 145.453 311.549ZM158.863 317V306.109H160.565V307.639C161.313 306.523 162.463 305.891 163.797 305.891C164.579 305.891 165.223 305.994 165.798 306.259L165.384 307.949C164.855 307.662 164.13 307.512 163.498 307.512C161.796 307.512 160.577 308.846 160.577 310.905V317H158.863ZM172.571 317.219C169.512 317.219 167.132 314.826 167.132 311.549C167.132 308.283 169.512 305.891 172.571 305.891C174.365 305.891 175.688 306.627 176.55 307.731V300.44H178.264V317H176.55V315.378C175.688 316.494 174.365 317.219 172.571 317.219ZM168.88 311.549C168.88 313.803 170.467 315.608 172.778 315.608C175.044 315.608 176.654 313.86 176.654 311.549C176.654 309.249 175.044 307.501 172.778 307.501C170.444 307.501 168.88 309.306 168.88 311.549ZM189.323 317V307.662H186.839V306.109H189.323V304.246C189.323 301.923 190.369 300.221 192.945 300.221C194.176 300.221 195.153 300.566 195.924 301.038L195.303 302.475C194.716 302.13 193.888 301.831 193.06 301.831C191.657 301.831 191.048 302.728 191.048 304.246V306.109H195.383V307.662H191.048V317H189.323ZM202.809 317.219C200.175 317.219 197.864 315.689 197.864 312.457V306.109H199.577V312.296C199.577 314.55 200.946 315.608 202.809 315.608C204.672 315.608 206.029 314.55 206.029 312.296V306.109H207.754V312.457C207.754 315.689 205.431 317.219 202.809 317.219ZM211.646 317V306.109H213.348V307.662C214.234 306.362 215.683 305.891 217.017 305.891C219.708 305.891 221.559 307.616 221.559 310.249V317H219.846V310.813C219.846 308.743 218.696 307.524 216.706 307.524C214.878 307.524 213.371 308.789 213.371 310.859V317H211.646ZM230.071 317.219C227.012 317.219 224.632 314.826 224.632 311.549C224.632 308.283 227.012 305.891 230.071 305.891C231.865 305.891 233.188 306.627 234.05 307.731V300.44H235.764V317H234.05V315.378C233.188 316.494 231.865 317.219 230.071 317.219ZM226.38 311.549C226.38 313.803 227.967 315.608 230.278 315.608C232.544 315.608 234.154 313.86 234.154 311.549C234.154 309.249 232.544 307.501 230.278 307.501C227.944 307.501 226.38 309.306 226.38 311.549ZM243.332 317.207C241.929 317.207 240.169 316.862 238.789 315.815L239.583 314.527C240.411 315.171 241.515 315.712 243.355 315.712C245.195 315.712 246.356 315.102 246.356 313.952C246.356 313.078 245.62 312.549 244.079 312.365L242.78 312.216C240.33 311.917 239.18 310.824 239.18 309.203C239.18 307.144 240.917 305.902 243.527 305.902C245.241 305.902 246.805 306.385 247.851 307.087L247.104 308.421C246.402 307.938 245.011 307.397 243.539 307.397C241.986 307.397 240.963 308.053 240.963 309.111C240.963 310.019 241.756 310.468 243.182 310.64L244.47 310.801C246.782 311.1 248.127 312.055 248.127 313.837C248.127 315.907 246.264 317.207 243.332 317.207ZM262.163 317.219C258.886 317.219 256.436 314.78 256.436 311.549C256.436 308.329 258.886 305.891 262.163 305.891C265.441 305.891 267.902 308.329 267.902 311.549C267.902 314.78 265.441 317.219 262.163 317.219ZM258.184 311.549C258.184 313.906 259.898 315.608 262.163 315.608C264.417 315.608 266.142 313.906 266.142 311.549C266.142 309.203 264.417 307.501 262.163 307.501C259.898 307.501 258.184 309.203 258.184 311.549ZM275.919 317.219C273.285 317.219 270.974 315.689 270.974 312.457V306.109H272.687V312.296C272.687 314.55 274.056 315.608 275.919 315.608C277.782 315.608 279.139 314.55 279.139 312.296V306.109H280.864V312.457C280.864 315.689 278.541 317.219 275.919 317.219ZM289.472 317.219C287.126 317.219 285.734 315.93 285.734 313.193V307.662H283.354V306.109H285.734V302.648H287.448V306.109H292.151V307.662H287.448V313.159C287.448 314.861 288.345 315.608 289.61 315.608C290.449 315.608 291.266 315.298 291.898 314.838L292.703 316.137C291.887 316.758 290.806 317.219 289.472 317.219ZM295.179 321.6V306.109H296.904V307.719C297.766 306.615 299.077 305.891 300.871 305.891C303.93 305.891 306.311 308.283 306.311 311.549C306.311 314.826 303.93 317.219 300.871 317.219C299.077 317.219 297.766 316.494 296.904 315.39V321.6H295.179ZM296.789 311.549C296.789 313.86 298.387 315.608 300.664 315.608C302.999 315.608 304.551 313.803 304.551 311.549C304.551 309.306 302.976 307.501 300.664 307.501C298.387 307.501 296.789 309.249 296.789 311.549ZM314.189 317.219C310.969 317.219 308.681 314.93 308.681 311.56C308.681 308.225 310.981 305.891 314.086 305.891C317.041 305.891 319.18 308.202 319.203 311.514C319.203 311.733 319.192 311.963 319.169 312.158H310.44C310.682 314.504 312.326 315.712 314.293 315.712C315.638 315.712 316.811 315.194 317.743 314.343L318.663 315.516C317.306 316.816 315.788 317.219 314.189 317.219ZM310.463 310.767H317.455C317.237 308.731 315.903 307.42 314.051 307.42C312.039 307.42 310.739 308.8 310.463 310.767ZM322.401 317V306.109H324.103V307.639C324.851 306.523 326.001 305.891 327.335 305.891C328.117 305.891 328.761 305.994 329.336 306.259L328.922 307.949C328.393 307.662 327.668 307.512 327.036 307.512C325.334 307.512 324.115 308.846 324.115 310.905V317H322.401ZM333.253 317V307.662H330.769V306.109H333.253V304.246C333.253 301.923 334.299 300.221 336.875 300.221C338.106 300.221 339.083 300.566 339.854 301.038L339.233 302.475C338.646 302.13 337.818 301.831 336.99 301.831C335.587 301.831 334.978 302.728 334.978 304.246V306.109H339.313V307.662H334.978V317H333.253ZM346.527 317.219C343.249 317.219 340.8 314.78 340.8 311.549C340.8 308.329 343.249 305.891 346.527 305.891C349.804 305.891 352.265 308.329 352.265 311.549C352.265 314.78 349.804 317.219 346.527 317.219ZM342.548 311.549C342.548 313.906 344.261 315.608 346.527 315.608C348.781 315.608 350.506 313.906 350.506 311.549C350.506 309.203 348.781 307.501 346.527 307.501C344.261 307.501 342.548 309.203 342.548 311.549ZM355.464 317V306.109H357.166V307.639C357.913 306.523 359.063 305.891 360.397 305.891C361.179 305.891 361.823 305.994 362.398 306.259L361.984 307.949C361.455 307.662 360.731 307.512 360.098 307.512C358.396 307.512 357.177 308.846 357.177 310.905V317H355.464ZM365.01 317V306.109H366.712V307.662C367.597 306.362 369.046 305.891 370.38 305.891C372.278 305.891 373.761 306.753 374.463 308.179C375.337 306.489 377.039 305.891 378.568 305.891C381.271 305.891 383.122 307.616 383.122 310.249V317H381.409V310.813C381.409 308.743 380.259 307.524 378.258 307.524C376.429 307.524 374.923 308.789 374.923 310.859V317H373.209V310.813C373.209 308.743 372.059 307.524 370.07 307.524C368.241 307.524 366.735 308.789 366.735 310.859V317H365.01ZM391.702 317.219C388.482 317.219 386.193 314.93 386.193 311.56C386.193 308.225 388.493 305.891 391.598 305.891C394.554 305.891 396.693 308.202 396.716 311.514C396.716 311.733 396.704 311.963 396.681 312.158H387.953C388.194 314.504 389.839 315.712 391.805 315.712C393.151 315.712 394.324 315.194 395.255 314.343L396.175 315.516C394.818 316.816 393.3 317.219 391.702 317.219ZM387.976 310.767H394.968C394.749 308.731 393.415 307.42 391.564 307.42C389.551 307.42 388.252 308.8 387.976 310.767ZM404.525 317.219C401.466 317.219 399.086 314.826 399.086 311.549C399.086 308.283 401.466 305.891 404.525 305.891C406.319 305.891 407.642 306.627 408.504 307.731V300.44H410.218V317H408.504V315.378C407.642 316.494 406.319 317.219 404.525 317.219ZM400.834 311.549C400.834 313.803 402.421 315.608 404.732 315.608C406.998 315.608 408.608 313.86 408.608 311.549C408.608 309.249 406.998 307.501 404.732 307.501C402.398 307.501 400.834 309.306 400.834 311.549ZM141.375 349.219C139.029 349.219 137.638 347.93 137.638 345.193V339.662H135.257V338.109H137.638V334.648H139.351V338.109H144.055V339.662H139.351V345.159C139.351 346.861 140.248 347.608 141.513 347.608C142.353 347.608 143.169 347.298 143.802 346.838L144.607 348.137C143.79 348.758 142.709 349.219 141.375 349.219ZM147.082 349V332.44H148.807V339.627C149.704 338.362 151.13 337.891 152.453 337.891C155.144 337.891 156.995 339.616 156.995 342.249V349H155.282V342.813C155.282 340.743 154.132 339.524 152.142 339.524C150.314 339.524 148.807 340.789 148.807 342.859V349H147.082ZM165.576 349.219C162.356 349.219 160.068 346.93 160.068 343.56C160.068 340.225 162.368 337.891 165.473 337.891C168.428 337.891 170.567 340.202 170.59 343.514C170.59 343.733 170.579 343.963 170.556 344.158H161.827C162.069 346.504 163.713 347.712 165.68 347.712C167.025 347.712 168.198 347.194 169.13 346.343L170.05 347.516C168.693 348.816 167.175 349.219 165.576 349.219ZM161.85 342.767H168.842C168.624 340.731 167.29 339.42 165.438 339.42C163.426 339.42 162.126 340.8 161.85 342.767ZM174.651 335.453C173.961 335.453 173.443 334.935 173.443 334.245C173.443 333.555 173.961 333.026 174.651 333.026C175.329 333.026 175.87 333.555 175.87 334.245C175.87 334.935 175.329 335.453 174.651 335.453ZM173.788 349V338.109H175.513V349H173.788ZM179.538 349V338.109H181.24V339.639C181.988 338.523 183.138 337.891 184.472 337.891C185.254 337.891 185.898 337.994 186.473 338.259L186.059 339.949C185.53 339.662 184.805 339.512 184.173 339.512C182.471 339.512 181.252 340.846 181.252 342.905V349H179.538ZM194.947 353.6V338.109H196.672V339.719C197.534 338.615 198.845 337.891 200.639 337.891C203.698 337.891 206.079 340.283 206.079 343.549C206.079 346.826 203.698 349.219 200.639 349.219C198.845 349.219 197.534 348.494 196.672 347.39V353.6H194.947ZM196.557 343.549C196.557 345.86 198.155 347.608 200.432 347.608C202.767 347.608 204.319 345.803 204.319 343.549C204.319 341.306 202.744 339.501 200.432 339.501C198.155 339.501 196.557 341.249 196.557 343.549ZM213.957 349.219C210.737 349.219 208.449 346.93 208.449 343.56C208.449 340.225 210.749 337.891 213.854 337.891C216.809 337.891 218.948 340.202 218.971 343.514C218.971 343.733 218.96 343.963 218.937 344.158H210.208C210.45 346.504 212.094 347.712 214.061 347.712C215.406 347.712 216.579 347.194 217.511 346.343L218.431 347.516C217.074 348.816 215.556 349.219 213.957 349.219ZM210.231 342.767H217.223C217.005 340.731 215.671 339.42 213.819 339.42C211.807 339.42 210.507 340.8 210.231 342.767ZM226.85 349.219C223.63 349.219 221.341 346.93 221.341 343.56C221.341 340.225 223.641 337.891 226.746 337.891C229.702 337.891 231.841 340.202 231.864 343.514C231.864 343.733 231.852 343.963 231.829 344.158H223.101C223.342 346.504 224.987 347.712 226.953 347.712C228.299 347.712 229.472 347.194 230.403 346.343L231.323 347.516C229.966 348.816 228.448 349.219 226.85 349.219ZM223.124 342.767H230.116C229.897 340.731 228.563 339.42 226.712 339.42C224.699 339.42 223.4 340.8 223.124 342.767ZM235.062 349V338.109H236.764V339.639C237.511 338.523 238.661 337.891 239.995 337.891C240.777 337.891 241.421 337.994 241.996 338.259L241.582 339.949C241.053 339.662 240.329 339.512 239.696 339.512C237.994 339.512 236.775 340.846 236.775 342.905V349H235.062ZM255.082 349.219C252.023 349.219 249.642 346.826 249.642 343.549C249.642 340.283 252.023 337.891 255.082 337.891C256.876 337.891 258.198 338.627 259.061 339.731V338.109H260.774V349H259.061V347.378C258.198 348.494 256.876 349.219 255.082 349.219ZM251.39 343.549C251.39 345.803 252.977 347.608 255.289 347.608C257.554 347.608 259.164 345.86 259.164 343.549C259.164 341.249 257.554 339.501 255.289 339.501C252.954 339.501 251.39 341.306 251.39 343.549ZM267.779 349.023L263.133 338.109H264.996L268.802 347.275L272.609 338.109H274.426L269.791 349.023H267.779ZM281.295 349.219C278.075 349.219 275.787 346.93 275.787 343.56C275.787 340.225 278.087 337.891 281.192 337.891C284.147 337.891 286.286 340.202 286.309 343.514C286.309 343.733 286.298 343.963 286.275 344.158H277.546C277.788 346.504 279.432 347.712 281.399 347.712C282.744 347.712 283.917 347.194 284.849 346.343L285.769 347.516C284.412 348.816 282.894 349.219 281.295 349.219ZM277.569 342.767H284.561C284.343 340.731 283.009 339.42 281.157 339.42C279.145 339.42 277.845 340.8 277.569 342.767ZM289.507 349V338.109H291.209V339.639C291.957 338.523 293.107 337.891 294.441 337.891C295.223 337.891 295.867 337.994 296.442 338.259L296.028 339.949C295.499 339.662 294.774 339.512 294.142 339.512C292.44 339.512 291.221 340.846 291.221 342.905V349H289.507ZM303.215 349.219C300.156 349.219 297.776 346.826 297.776 343.549C297.776 340.283 300.156 337.891 303.215 337.891C305.009 337.891 306.332 338.627 307.194 339.731V338.109H308.908V349H307.194V347.378C306.332 348.494 305.009 349.219 303.215 349.219ZM299.524 343.549C299.524 345.803 301.111 347.608 303.422 347.608C305.688 347.608 307.298 345.86 307.298 343.549C307.298 341.249 305.688 339.501 303.422 339.501C301.088 339.501 299.524 341.306 299.524 343.549ZM317.35 353.773C315.613 353.773 313.865 353.232 312.761 352.312L313.52 350.932C314.555 351.714 315.878 352.209 317.35 352.209C319.707 352.209 321.386 350.863 321.386 348.321V347.206C320.558 348.344 319.259 349.058 317.499 349.058C314.44 349.058 312.106 346.769 312.106 343.468C312.106 340.179 314.44 337.891 317.499 337.891C319.259 337.891 320.558 338.615 321.386 339.742V338.109H323.111V348.252C323.111 351.806 320.719 353.773 317.35 353.773ZM313.854 343.468C313.854 345.676 315.383 347.447 317.695 347.447C319.937 347.447 321.536 345.734 321.536 343.468C321.536 341.226 319.937 339.501 317.695 339.501C315.383 339.501 313.854 341.272 313.854 343.468ZM331.81 349.219C328.59 349.219 326.301 346.93 326.301 343.56C326.301 340.225 328.601 337.891 331.706 337.891C334.662 337.891 336.801 340.202 336.824 343.514C336.824 343.733 336.812 343.963 336.789 344.158H328.061C328.302 346.504 329.947 347.712 331.913 347.712C333.259 347.712 334.432 347.194 335.363 346.343L336.283 347.516C334.926 348.816 333.408 349.219 331.81 349.219ZM328.084 342.767H335.076C334.857 340.731 333.523 339.42 331.672 339.42C329.659 339.42 328.36 340.8 328.084 342.767ZM343.564 349.207C342.161 349.207 340.401 348.862 339.021 347.815L339.815 346.527C340.643 347.171 341.747 347.712 343.587 347.712C345.427 347.712 346.588 347.102 346.588 345.952C346.588 345.078 345.852 344.549 344.311 344.365L343.012 344.216C340.562 343.917 339.412 342.824 339.412 341.203C339.412 339.144 341.149 337.902 343.759 337.902C345.473 337.902 347.037 338.385 348.083 339.087L347.336 340.421C346.634 339.938 345.243 339.397 343.771 339.397C342.218 339.397 341.195 340.053 341.195 341.111C341.195 342.019 341.988 342.468 343.414 342.64L344.702 342.801C347.014 343.1 348.359 344.055 348.359 345.837C348.359 347.907 346.496 349.207 343.564 349.207Z" fill="#040505"/>
</svg>
